{"title":"Burlesque 2010 720p BluRay x264-Felony","uid":6165337,"size":5864769041,"categoryP":"video","categoryS":"hd___movies","magnet":"?xt=urn:btih:7eca9e7ab4ec2e3123c79914f6fcfcd9771f7afd&amp;dn=Burlesque+2010+720p+BluRay+x264-Felony&amp;tr=udp%3A%2F%2Ftracker.openbittorrent.com%3A80&amp;tr=udp%3A%2F%2Fopen.demonii.com%3A1337&amp;tr=udp%3A%2F%2Ftracker.coppersurfer.tk%3A6969&amp;tr=udp%3A%2F%2Fexodus.desync.com%3A6969","seeders":1,"leechers":0,"uploader":"bobnjeff","files":1,"time":1297365448,"description":"Name/Year..: Burlesque (2010)\nTheatre....: 28/11/2010 USA\nRelease....: 10/02/2011\nSource.....: R1 1080p BluRay\n &lt;a href=&quot;\nhttp://www.imdb.com/title/tt1126591/&quot; rel=&quot;nofollow&quot; target=&quot;_NEW&quot;&gt;\nhttp://www.imdb.com/title/tt1126591/&lt;/a&gt;\n\nRuntime 1:58:00\nViDEO CODEC x264\nBitrate 5061 kbps\nProfile &lt;a class=&quot;__cf_email__&quot; href=&quot;/cdn-cgi/l/email-protection&quot; data-cfemail=&quot;a7efcec0cfe7eb938996&quot;&gt;[email&amp;#160;protected]&lt;/a&gt;&lt;script cf-hash='f9e31' type=&quot;text/javascript&quot;&gt;\n/* &lt;![CDATA[ */!function(){try{var t=&quot;currentScript&quot;in document?document.currentScript:function(){for(var t=document.getElementsByTagName(&quot;script&quot;),e=t.length;e--;)if(t[e].getAttribute(&quot;cf-hash&quot;))return t[e]}();if(t&amp;&amp;t.previousSibling){var e,r,n,i,c=t.previousSibling,a=c.getAttribute(&quot;data-cfemail&quot;);if(a){for(e=&quot;&quot;,r=parseInt(a.substr(0,2),16),n=2;a.length-n;n+=2)i=parseInt(a.substr(n,2),16)^r,e+=String.fromCharCode(i);e=document.createTextNode(e),c.parentNode.replaceChild(e,c)}}}catch(u){}}();/* ]]&gt; */&lt;/script&gt;\nAudio English DTS 5.1 @ 1509 kbps\nSubtitles English \nResolution 1280x536 (2.35:1)\nFramerate 23.976 frames/s\nRef. Frames 5\n\n\nTitle: Burlesque\n\nYear: 2010\nRuntime: 119 mins\nLanguage: English\nCountry: USA\nAll Genres: Drama, Musical, Romance\nDirector: Steve Antin \nWriting By: Steve Antin \nProduced By: Bojan Bazelli Dana Belcastro Stacy Cramer Donald De Line Glenn S. Gainor Dave Goldberg Risa Shapiro \nMusic: Christophe Beck \nRating: 6.1\nVotes: 0\n\n\n---------------------------------------------------------------------\nDescription:\n---------------------------------------------------------------------\n. The Burlesque Lounge has its best days behind it. Tess, a retired dancer and owner of the venue, struggles to keep the aging theater alive, facing all kinds of financial and artistic challenges. With the Lounge's troupe members becoming increasingly distracted by personal problems and a threat coming from a wealthy businessman's quest to buy the spot from Tess, the good fortune seems to have abandoned the club altogether. Meanwhile, the life of Ali, a small-town girl from Iowa, is about to change dramatically. Hired by Tess as a waitress at the Lounge, Ali escapes a hollow past and quickly falls in love with the art of burlesque. Backed by newfound friends amongst the theater's crew, she manages to fulfill her dreams of being on stage herself. Things take a dramatic turn though when Ali's big voice makes her become the main attraction of the revue. Written by Bobby_John \n\n---------------------------------------------------------------------\nCast:\n---------------------------------------------------------------------\n. Cher as Tess \n. Christina Aguilera as Ali \n. Eric Dane as Marcus \n. Cam Gigandet as Jack \n. Julianne Hough as Georgia \n. Alan Cumming as Alexis \n. Peter Gallagher as Vince \n. Kristen Bell as Nikki \n. Stanley Tucci as Sean \n. Dianna Agron as Natalie \n \n\n\n\nVideo\nID                               : 1\nFormat                           : AVC\nFormat/Info                      : Advanced Video Codec\nFormat profile                   : &lt;a class=&quot;__cf_email__&quot; href=&quot;/cdn-cgi/l/email-protection&quot; data-cfemail=&quot;e2aa8b858aa2aed6ccd3&quot;&gt;[email&amp;#160;protected]&lt;/a&gt;&lt;script cf-hash='f9e31' type=&quot;text/javascript&quot;&gt;\n/* &lt;![CDATA[ */!function(){try{var t=&quot;currentScript&quot;in document?document.currentScript:function(){for(var t=document.getElementsByTagName(&quot;script&quot;),e=t.length;e--;)if(t[e].getAttribute(&quot;cf-hash&quot;))return t[e]}();if(t&amp;&amp;t.previousSibling){var e,r,n,i,c=t.previousSibling,a=c.getAttribute(&quot;data-cfemail&quot;);if(a){for(e=&quot;&quot;,r=parseInt(a.substr(0,2),16),n=2;a.length-n;n+=2)i=parseInt(a.substr(n,2),16)^r,e+=String.fromCharCode(i);e=document.createTextNode(e),c.parentNode.replaceChild(e,c)}}}catch(u){}}();/* ]]&gt; */&lt;/script&gt;\nFormat settings, CABAC           : Yes\nFormat settings, ReFrames        : 5 frames\nMuxing mode                      : Container profile=&lt;a class=&quot;__cf_email__&quot; href=&quot;/cdn-cgi/l/email-protection&quot; data-cfemail=&quot;7a2f141114150d143a4e544b&quot;&gt;[email&amp;#160;protected]&lt;/a&gt;&lt;script cf-hash='f9e31' type=&quot;text/javascript&quot;&gt;\n/* &lt;![CDATA[ */!function(){try{var t=&quot;currentScript&quot;in document?document.currentScript:function(){for(var t=document.getElementsByTagName(&quot;script&quot;),e=t.length;e--;)if(t[e].getAttribute(&quot;cf-hash&quot;))return t[e]}();if(t&amp;&amp;t.previousSibling){var e,r,n,i,c=t.previousSibling,a=c.getAttribute(&quot;data-cfemail&quot;);if(a){for(e=&quot;&quot;,r=parseInt(a.substr(0,2),16),n=2;a.length-n;n+=2)i=parseInt(a.substr(n,2),16)^r,e+=String.fromCharCode(i);e=document.createTextNode(e),c.parentNode.replaceChild(e,c)}}}catch(u){}}();/* ]]&gt; */&lt;/script&gt;\nCodec ID                         : V_MPEG4/ISO/AVC\nDuration                         : 1h 58mn\nBit rate                         : 4 932 Kbps\nNominal bit rate                 : 5 061 Kbps\nWidth                            : 1 280 pixels\nHeight                           : 536 pixels\nDisplay aspect ratio             : 2.35:1\nFrame rate                       : 23.976 fps\nResolution                       : 8 bits\nColorimetry                      : 4:2:0\nScan type                        : Progressive\nBits/(Pixel*Frame)               : 0.300\nStream size                      : 4.09 GiB (75%)\n\nAudio\nID                               : 2\nFormat                           : DTS\nFormat/Info                      : Digital Theater Systems\nCodec ID                         : A_DTS\nDuration                         : 1h 58mn\nBit rate mode                    : Constant\nBit rate                         : 1 510 Kbps\nChannel(s)                       : 6 channels\nChannel positions                : Front: L C R, Surround: L R, LFE\nSampling rate                    : 48.0 KHz\nResolution                       : 24 bits\nStream size                      : 1.25 GiB (23%)\n &lt;a href=&quot;\nhttp://www.imagebam.com/image/a6ab8c118972180&quot; rel=&quot;nofollow&quot; target=&quot;_NEW&quot;&gt;\nhttp://www.imagebam.com/image/a6ab8c118972180&lt;/a&gt;\n &lt;a href=&quot;\nhttp://www.imagebam.com/image/aeb3b7118972171&quot; rel=&quot;nofollow&quot; target=&quot;_NEW&quot;&gt;\nhttp://www.imagebam.com/image/aeb3b7118972171&lt;/a&gt;\n &lt;a href=&quot;\nhttp://www.imagebam.com/image/98f48e118972159&quot; rel=&quot;nofollow&quot; target=&quot;_NEW&quot;&gt;\nhttp://www.imagebam.com/image/98f48e118972159&lt;/a&gt;\n &lt;a href=&quot;\nhttp://www.imagebam.com/image/3c622a118972136&quot; rel=&quot;nofollow&quot; target=&quot;_NEW&quot;&gt;\nhttp://www.imagebam.com/image/3c622a118972136&lt;/a&gt;","torrent":{"xt":"urn:btih:7eca9e7ab4ec2e3123c79914f6fcfcd9771f7afd","amp;dn":"Burlesque+2010+720p+BluRay+x264-Felony","amp;tr":["udp%3A%2F%2Ftracker.openbittorrent.com%3A80","udp%3A%2F%2Fopen.demonii.com%3A1337","udp%3A%2F%2Ftracker.coppersurfer.tk%3A6969","udp%3A%2F%2Fexodus.desync.com%3A6969"],"infoHash":"7eca9e7ab4ec2e3123c79914f6fcfcd9771f7afd","infoHashBuffer":{"type":"Buffer","data":[126,202,158,122,180,236,46,49,35,199,153,20,246,252,252,217,119,31,122,253]},"announce":[],"urlList":[]}}